<?xml version="1.0"?>
<svg xmlns="http://www.w3.org/2000/svg" width="900" height="650" viewBox="0 0 900 650">
<defs>
<linearGradient id="bg" x1="0" y1="0" x2="1" y2="1">
<stop offset="0%" stop-color="#0a0a0a"/><stop offset="100%" stop-color="#171717"/></linearGradient>
<linearGradient id="ac" x1="0" y1="0" x2="1" y2="0">
<stop offset="0%" stop-color="#ff8a00"/><stop offset="100%" stop-color="#ff3b00"/></linearGradient>
</defs>
<rect width="900" height="650" rx="24" fill="url(#bg)" stroke="url(#ac)" stroke-width="3"/>
<text x="40" y="55" fill="#ff8a00" font-size="28" font-family="monospace">HS://INFERNO v1.0</text>
<text x="40" y="90" fill="#aaa" font-size="18" font-family="monospace">TECH ARSENAL</text>
<text x="40" y="130" fill="#fff" font-size="22" font-family="sans-serif">Languages</text><text x="40" y="180" fill="#bbb" font-size="15">Java</text><rect x="180" y="166" width="250" height="12" rx="6" fill="#222"/><rect x="180" y="166" width="238" height="12" rx="6" fill="#ff6a00"/><text x="445" y="180" fill="#fff" font-size="13">95%</text><text x="40" y="210" fill="#bbb" font-size="15">Python</text><rect x="180" y="196" width="250" height="12" rx="6" fill="#222"/><rect x="180" y="196" width="225" height="12" rx="6" fill="#ff6a00"/><text x="445" y="210" fill="#fff" font-size="13">90%</text><text x="40" y="240" fill="#bbb" font-size="15">JavaScript</text><rect x="180" y="226" width="250" height="12" rx="6" fill="#222"/><rect x="180" y="226" width="220" height="12" rx="6" fill="#ff6a00"/><text x="445" y="240" fill="#fff" font-size="13">88%</text><text x="40" y="270" fill="#bbb" font-size="15">C++</text><rect x="180" y="256" width="250" height="12" rx="6" fill="#222"/><rect x="180" y="256" width="188" height="12" rx="6" fill="#ff6a00"/><text x="445" y="270" fill="#fff" font-size="13">75%</text><text x="40" y="300" fill="#bbb" font-size="15">C</text><rect x="180" y="286" width="250" height="12" rx="6" fill="#222"/><rect x="180" y="286" width="175" height="12" rx="6" fill="#ff6a00"/><text x="445" y="300" fill="#fff" font-size="13">70%</text><text x="40" y="330" fill="#bbb" font-size="15">PHP</text><rect x="180" y="316" width="250" height="12" rx="6" fill="#222"/><rect x="180" y="316" width="150" height="12" rx="6" fill="#ff6a00"/><text x="445" y="330" fill="#fff" font-size="13">60%</text><text x="40" y="360" fill="#fff" font-size="22" font-family="sans-serif">Frameworks</text><text x="40" y="410" fill="#bbb" font-size="15">React</text><rect x="180" y="396" width="250" height="12" rx="6" fill="#222"/><rect x="180" y="396" width="225" height="12" rx="6" fill="#ff6a00"/><text x="445" y="410" fill="#fff" font-size="13">90%</text><text x="40" y="440" fill="#bbb" font-size="15">Node.js</text><rect x="180" y="426" width="250" height="12" rx="6" fill="#222"/><rect x="180" y="426" width="212" height="12" rx="6" fill="#ff6a00"/><text x="445" y="440" fill="#fff" font-size="13">85%</text><text x="40" y="470" fill="#bbb" font-size="15">Express</text><rect x="180" y="456" width="250" height="12" rx="6" fill="#222"/><rect x="180" y="456" width="205" height="12" rx="6" fill="#ff6a00"/><text x="445" y="470" fill="#fff" font-size="13">82%</text><text x="40" y="500" fill="#bbb" font-size="15">Tailwind</text><rect x="180" y="486" width="250" height="12" rx="6" fill="#222"/><rect x="180" y="486" width="220" height="12" rx="6" fill="#ff6a00"/><text x="445" y="500" fill="#fff" font-size="13">88%</text><text x="40" y="530" fill="#fff" font-size="22" font-family="sans-serif">Databases</text><text x="40" y="580" fill="#bbb" font-size="15">MongoDB</text><rect x="180" y="566" width="250" height="12" rx="6" fill="#222"/><rect x="180" y="566" width="225" height="12" rx="6" fill="#ff6a00"/><text x="445" y="580" fill="#fff" font-size="13">90%</text><text x="40" y="610" fill="#bbb" font-size="15">MySQL</text><rect x="180" y="596" width="250" height="12" rx="6" fill="#222"/><rect x="180" y="596" width="205" height="12" rx="6" fill="#ff6a00"/><text x="445" y="610" fill="#fff" font-size="13">82%</text><text x="40" y="640" fill="#bbb" font-size="15">Firebase</text><rect x="180" y="626" width="250" height="12" rx="6" fill="#222"/><rect x="180" y="626" width="200" height="12" rx="6" fill="#ff6a00"/><text x="445" y="640" fill="#fff" font-size="13">80%</text><text x="40" y="670" fill="#bbb" font-size="15">Supabase</text><rect x="180" y="656" width="250" height="12" rx="6" fill="#222"/><rect x="180" y="656" width="188" height="12" rx="6" fill="#ff6a00"/><text x="445" y="670" fill="#fff" font-size="13">75%</text><text x="40" y="700" fill="#fff" font-size="22" font-family="sans-serif">Tools</text><text x="40" y="750" fill="#bbb" font-size="15">Git</text><rect x="180" y="736" width="250" height="12" rx="6" fill="#222"/><rect x="180" y="736" width="238" height="12" rx="6" fill="#ff6a00"/><text x="445" y="750" fill="#fff" font-size="13">95%</text><text x="40" y="780" fill="#bbb" font-size="15">GitHub</text><rect x="180" y="766" width="250" height="12" rx="6" fill="#222"/><rect x="180" y="766" width="238" height="12" rx="6" fill="#ff6a00"/><text x="445" y="780" fill="#fff" font-size="13">95%</text><text x="40" y="810" fill="#bbb" font-size="15">Vercel</text><rect x="180" y="796" width="250" height="12" rx="6" fill="#222"/><rect x="180" y="796" width="225" height="12" rx="6" fill="#ff6a00"/><text x="445" y="810" fill="#fff" font-size="13">90%</text><text x="40" y="840" fill="#bbb" font-size="15">Render</text><rect x="180" y="826" width="250" height="12" rx="6" fill="#222"/><rect x="180" y="826" width="200" height="12" rx="6" fill="#ff6a00"/><text x="445" y="840" fill="#fff" font-size="13">80%</text><text x="40" y="870" fill="#bbb" font-size="15">Railway</text><rect x="180" y="856" width="250" height="12" rx="6" fill="#222"/><rect x="180" y="856" width="188" height="12" rx="6" fill="#ff6a00"/><text x="445" y="870" fill="#fff" font-size="13">75%</text><circle cx="760" cy="610" r="6" fill="#00ff66"><animate attributeName="opacity" values="1;.2;1" dur="1s" repeatCount="indefinite"/></circle><text x="775" y="615" fill="#fff" font-family="monospace">ONLINE</text></svg>