<?xml version="1.0" encoding="UTF-8"?>
<svg xmlns="http://www.w3.org/2000/svg" width="900" height="520" viewBox="0 0 900 520">
<defs>
<linearGradient id="bg" x1="0" y1="0" x2="1" y2="1">
<stop offset="0%" stop-color="#0a0a0a"/><stop offset="100%" stop-color="#131418"/>
</linearGradient>
<linearGradient id="accent" x1="0" y1="0" x2="1" y2="0">
<stop offset="0%" stop-color="#38bdf8"/><stop offset="100%" stop-color="#0ea5e9"/>
</linearGradient>
<pattern id="grid" width="30" height="30" patternUnits="userSpaceOnUse">
<path d="M30 0H0V30" fill="none" stroke="#1a1c22" stroke-width="1"/>
</pattern>
</defs>

<rect width="900" height="520" rx="20" fill="url(#bg)" stroke="#26292f" stroke-width="1.5"/>
<rect x="1" y="1" width="898" height="518" rx="19" fill="url(#grid)" opacity=".3"/>
<rect width="900" height="520" rx="20" fill="none" stroke="url(#accent)" stroke-width="1" opacity=".4"/>

<!-- Header -->
<circle cx="52" cy="48" r="5" fill="#22c55e">
<animate attributeName="opacity" values="1;.35;1" dur="1.8s" repeatCount="indefinite"/>
</circle>
<text x="40" y="60" fill="#f5f5f5" font-size="26" font-family="'Inter','Segoe UI',sans-serif" font-weight="700">Achievements</text>
<text x="40" y="88" fill="#6b7280" font-size="14" font-family="'JetBrains Mono', monospace" letter-spacing="1">MILESTONES LOG</text>
<rect x="40" y="105" width="820" height="1.5" fill="#26292f"/>

<g font-family="'Inter','Segoe UI',sans-serif">

<rect x="40" y="130" width="820" height="72" rx="12" fill="#111318" stroke="#26292f" stroke-width="1.5"/>
<rect x="40" y="130" width="4" height="72" rx="2" fill="url(#accent)"/>
<text x="72" y="171" font-size="24">🧊</text>
<text x="118" y="163" fill="#f5f5f5" font-size="18" font-weight="600">FROST Initiated</text>
<text x="118" y="186" fill="#6b7280" font-size="13">Project foundation complete</text>

<rect x="40" y="214" width="820" height="72" rx="12" fill="#111318" stroke="#26292f" stroke-width="1.5"/>
<rect x="40" y="214" width="4" height="72" rx="2" fill="url(#accent)"/>
<text x="72" y="255" font-size="24">🌐</text>
<text x="118" y="247" fill="#f5f5f5" font-size="18" font-weight="600">Full Stack</text>
<text x="118" y="270" fill="#6b7280" font-size="13">Modern web development</text>

<rect x="40" y="298" width="820" height="72" rx="12" fill="#111318" stroke="#26292f" stroke-width="1.5"/>
<rect x="40" y="298" width="4" height="72" rx="2" fill="url(#accent)"/>
<text x="72" y="339" font-size="24">🤖</text>
<text x="118" y="331" fill="#f5f5f5" font-size="18" font-weight="600">AI Engineer</text>
<text x="118" y="354" fill="#6b7280" font-size="13">Building AI-powered applications</text>

<rect x="40" y="382" width="820" height="72" rx="12" fill="#111318" stroke="#26292f" stroke-width="1.5"/>
<rect x="40" y="382" width="4" height="72" rx="2" fill="url(#accent)"/>
<text x="72" y="423" font-size="24">🔐</text>
<text x="118" y="415" fill="#f5f5f5" font-size="18" font-weight="600">Cyber Security</text>
<text x="118" y="438" fill="#6b7280" font-size="13">Threat intelligence focus</text>

</g>

<rect x="40" y="470" width="820" height="1.5" fill="#26292f"/>
<text x="40" y="500" fill="#38bdf8" font-family="'JetBrains Mono', monospace" font-size="16">SYSTEM STATUS: ACTIVE</text>

<circle cx="800" cy="495" r="5" fill="#22c55e">
<animate attributeName="opacity" values="1;.35;1" dur="1.8s" repeatCount="indefinite"/>
</circle>
<text x="815" y="500" fill="#9ca3af" font-family="'JetBrains Mono', monospace" font-size="15">ONLINE</text>

</svg>
